<svg width="100" height="125" viewBox="0 0 100 125" fill="none" xmlns="http://www.w3.org/2000/svg">
<g clip-path="url(#clip0_1:3)">
<path d="M99.2775 57.8237C99.2545 57.8037 99.2315 57.7837 99.2085 57.7637C99.1195 57.6737 99.0255 57.5887 98.9195 57.5137C84.7095 45.2437 70.4975 32.9748 56.2855 20.7057C55.1955 19.7648 53.8405 19.7648 52.7505 20.7057C38.4195 33.0788 24.0885 45.4507 9.75852 57.8237C8.05952 59.2907 9.46252 62.0917 11.5265 62.0917C14.4205 62.0917 17.3135 62.0917 20.2075 62.0917C20.2075 75.3287 20.2075 88.5647 20.2075 101.802C20.2075 103.165 21.3445 104.302 22.7075 104.302C30.8555 104.302 39.0035 104.302 47.1515 104.302C48.5145 104.302 49.6515 103.165 49.6515 101.802C49.6515 94.4878 49.6515 87.1727 49.6515 79.8587C53.4165 79.8587 57.1815 79.8587 60.9465 79.8587C60.9465 87.1727 60.9465 94.4878 60.9465 101.802C60.9465 103.165 62.0835 104.302 63.4465 104.302C71.5945 104.302 79.7425 104.302 87.8905 104.302C89.2535 104.302 90.3905 103.165 90.3905 101.802C90.3905 88.5647 90.3905 75.3277 90.3905 62.0917C92.7635 62.0917 95.1365 62.0917 97.5095 62.0917C98.5765 62.0917 99.2825 61.5408 99.6435 60.8078C100.269 59.9328 100.344 58.7437 99.2775 57.8237ZM90.7985 57.0917C89.8285 57.0917 88.8605 57.0917 87.8905 57.0917C86.5275 57.0917 85.3905 58.2287 85.3905 59.5917C85.3905 72.8287 85.3905 86.0647 85.3905 99.3018C78.9095 99.3018 72.4275 99.3018 65.9465 99.3018C65.9465 91.9878 65.9465 84.6727 65.9465 77.3587C65.9465 75.9957 64.8095 74.8587 63.4465 74.8587C58.0145 74.8587 52.5825 74.8587 47.1515 74.8587C45.7885 74.8587 44.6515 75.9957 44.6515 77.3587C44.6515 84.6727 44.6515 91.9878 44.6515 99.3018C38.1705 99.3018 31.6895 99.3018 25.2075 99.3018C25.2075 86.0647 25.2075 72.8277 25.2075 59.5917C25.2075 58.2287 24.0705 57.0917 22.7075 57.0917C21.2175 57.0917 19.7275 57.0917 18.2375 57.0917C30.3305 46.6507 42.4245 36.2087 54.5175 25.7677C66.6115 36.2087 78.7045 46.6507 90.7985 57.0917Z" fill="black"/>
</g>
<defs>
<clipPath id="clip0_1:3">
<rect width="100" height="125" fill="white"/>
</clipPath>
</defs>
</svg>
